<svg xmlns="http://www.w3.org/2000/svg">
	<symbol id="search" viewBox="0 0 24 24" fill="none">
		<path
			d="M21 21L16.7 16.7M19 11C19 15.4183 15.4183 19 11 19C6.58172 19 3 15.4183 3 11C3 6.58172 6.58172 3 11 3C15.4183 3 19 6.58172 19 11Z"
			stroke="currentColor" stroke-width="2" stroke-linecap="round" stroke-linejoin="round" />
	</symbol>
	<symbol id="cart" viewBox="0 0 24 24" fill="none">
		<path
			d="M2.0498 2.04999H4.0498L6.7098 14.47C6.80738 14.9248 7.06048 15.3315 7.42552 15.6198C7.79056 15.9082 8.24471 16.0603 8.7098 16.05H18.4898C18.945 16.0493 19.3863 15.8933 19.7408 15.6078C20.0954 15.3224 20.3419 14.9245 20.4398 14.48L22.0898 7.04999H5.1198M8.9998 21C8.9998 21.5523 8.55209 22 7.9998 22C7.44752 22 6.9998 21.5523 6.9998 21C6.9998 20.4477 7.44752 20 7.9998 20C8.55209 20 8.9998 20.4477 8.9998 21ZM19.9998 21C19.9998 21.5523 19.5521 22 18.9998 22C18.4475 22 17.9998 21.5523 17.9998 21C17.9998 20.4477 18.4475 20 18.9998 20C19.5521 20 19.9998 20.4477 19.9998 21Z"
			stroke="currentColor" stroke-width="2" stroke-linecap="round" stroke-linejoin="round" />
	</symbol>
	<symbol id="burger-menu" viewBox="0 0 24 24" fill="none">
		<path d="M21 12H9M21 18H7M21 6H3" stroke="currentColor" stroke-width="2" stroke-linecap="round"
			stroke-linejoin="round" />
	</symbol>
	<symbol id="cross-menu" viewBox="0 0 24 24" fill="none">
		<path d="M18 6L6 18M6 6L18 18" stroke="currentColor" stroke-width="2" stroke-linecap="round"
			stroke-linejoin="round" />
	</symbol>
	<symbol id="cross" viewBox="0 0 24 24" fill="none">
		<path d="M18 6L6 18M6 6L18 18" stroke="currentColor" stroke-width="2" stroke-linecap="round"
			stroke-linejoin="round" />
	</symbol>
	<symbol id="chevron-down" viewBox="0 0 24 24" fill="none">
		<path d="M6 9L12 15L18 9" stroke="currentColor" stroke-width="2" stroke-linecap="round"
			stroke-linejoin="round" />
	</symbol>
	<symbol id="arrow-left" viewBox="0 0 14 26" fill="none">
		<path d="M13 25L1 13L13 1" stroke="#08090D" stroke-width="2" stroke-linecap="round" stroke-linejoin="round" />
	</symbol>
	<symbol id="arrow-right" viewBox="0 0 14 26" fill="none">
		<path d="M1 1L13 13L1 25" stroke="#08090D" stroke-width="2" stroke-linecap="round" stroke-linejoin="round" />
	</symbol>
	<symbol id="arrow-up-right" viewBox="0 0 30 28" fill="none">
		<path d="M7.31464 20.4816L21.9444 6.82715" stroke="#151A1E" stroke-width="3" stroke-linecap="round"
			stroke-linejoin="round" />
		<path d="M7.31464 6.82715H21.9444V20.4816" stroke="#151A1E" stroke-width="3" stroke-linecap="round"
			stroke-linejoin="round" />
	</symbol>

	<symbol id="handshake" viewBox="0 0 512 512" fill="none">
		<g fill="currentColor">
			<path d="M386.234,78.954l-49.861,49.861l4.635,4.814c-3.302,2.667-6.644,5.269-9.888,7.579
		c-5.236,3.74-10.262,6.74-13.669,8.147c-0.22,0.098-1.146,0.358-2.984,0.35c-2.936,0.032-7.847-0.716-13.864-1.634
		c-6.042-0.911-13.27-1.902-21.417-1.911c-7.108-0.024-14.946,0.838-23.199,3.106c-8.236-2.26-16.059-3.106-23.149-3.097
		c-8.156,0-15.384,0.992-21.426,1.911c-6.017,0.918-10.92,1.667-13.855,1.634c-1.846,0.016-2.765-0.26-2.952-0.35
		c-3.635-1.488-9.116-4.806-14.758-8.912c-2.919-2.122-5.895-4.448-8.847-6.838l4.627-4.798l-49.861-49.861L0,209.216l49.861,49.861
		l14.595-15.116l32.216,28.117c0.902,5.391,2.602,10.481,4.562,15.312c1.276,3.074,2.675,6.033,4.107,8.814
		c-3.115,5.156-4.814,11.043-4.798,17.011c-0.008,5.92,1.618,11.969,4.96,17.344c5.082,8.172,13.222,13.311,22.011,14.937
		c0.05,5.814,1.66,11.742,4.936,17.011c6.221,10.002,16.987,15.547,27.964,15.53c0.423,0,0.854-0.065,1.276-0.081
		c0.553,4.651,2.082,9.286,4.7,13.498c6.221,10.001,16.994,15.547,27.955,15.53c1.09,0,2.172-0.114,3.269-0.22
		c0.52,4.188,1.911,8.367,4.261,12.14c5.668,9.108,15.474,14.165,25.45,14.141c5.383,0.008,10.896-1.456,15.791-4.497l14.946-9.301
		c2.944,1.902,6.033,3.577,9.277,4.943c6.042,2.545,12.571,4.106,19.361,4.114c7.448,0.033,15.311-2.008,22.076-6.765
		c4.407-3.073,8.139-7.286,11.196-12.253c0.472,0.016,0.854,0.098,1.342,0.106c3.098,0,6.497-0.464,9.864-1.513
		c3.39-1.032,6.757-2.578,10.351-4.634c8.57-4.83,13.709-11.937,16.206-18.027c0.553-1.333,0.951-2.586,1.309-3.797
		c2.074-0.658,4.058-1.464,5.854-2.504c6.627-3.814,10.945-9.611,13.604-15.433c2.667-5.88,3.838-11.986,3.854-17.856
		c0-0.578-0.073-1.139-0.098-1.708c4.334-1.772,8.228-4.236,11.546-7.139c3.399-2.977,6.253-6.44,8.375-10.392
		c2.115-3.935,3.53-8.44,3.538-13.375c0.008-3.212-0.651-6.595-2.09-9.766c-0.464-1.008-1.122-1.935-1.724-2.87
		c2.53-4.53,5.106-9.635,7.22-15.148c1.586-4.172,2.92-8.546,3.684-13.141l33.59-29.313l15.742,16.303L512,209.216L386.234,78.954z
		 M138.744,320.428l-0.578,0.366c-1.504,0.928-3.082,1.342-4.708,1.35c-3.017-0.016-5.912-1.488-7.611-4.228
		c-0.927-1.504-1.35-3.09-1.35-4.7c0.016-3.033,1.48-5.912,4.212-7.611l19.751-12.27c1.504-0.935,3.082-1.341,4.691-1.358
		c3.033,0.032,5.912,1.48,7.62,4.236l10.172-6.318l-10.172,6.326c0.927,1.496,1.341,3.073,1.35,4.684
		c-0.017,2.114-0.773,4.131-2.138,5.757L143.02,317.2C141.476,318.159,140.069,319.273,138.744,320.428z M165.113,352.733
		c-1.504,0.927-3.082,1.35-4.7,1.35c-3.025-0.016-5.919-1.48-7.619-4.22c-0.928-1.504-1.342-3.098-1.35-4.708
		c0.007-2.097,0.764-4.114,2.122-5.724l16.97-10.562c1.537-0.952,2.928-2.057,4.253-3.212l0.618-0.374
		c1.504-0.935,3.09-1.35,4.692-1.35c3.041,0.016,5.911,1.48,7.618,4.228c0.927,1.504,1.342,3.073,1.35,4.692
		c-0.016,3.016-1.471,5.911-4.236,7.627L165.113,352.733z M218.771,369.419l-19.726,12.262c-1.496,0.928-3.074,1.35-4.7,1.35
		c-3.017-0.016-5.912-1.48-7.611-4.22c-0.927-1.512-1.341-3.09-1.35-4.708c0.025-3.033,1.48-5.903,4.212-7.611l19.751-12.27
		c1.504-0.935,3.082-1.341,4.691-1.341c3.033,0.007,5.912,1.471,7.62,4.22c0.926,1.505,1.341,3.082,1.35,4.7
		C222.991,364.816,221.536,367.694,218.771,369.419z M249.353,389.421c0.625,1,0.894,2.041,0.902,3.13
		c-0.016,2.025-0.984,3.952-2.846,5.115l-16.938,10.521c-1.008,0.634-2.049,0.902-3.147,0.902c-2.032-0.008-3.959-0.992-5.106-2.829
		c-0.626-1.017-0.895-2.058-0.903-3.146c0.024-2.042,0.992-3.953,2.821-5.091h0.008l16.954-10.538
		c1.033-0.642,2.066-0.911,3.147-0.911c2.041,0.016,3.952,0.984,5.098,2.83l10.18-6.31L249.353,389.421z M381.071,315.061
		c-0.87,1.683-2.854,3.878-5.366,5.415c-2.513,1.554-5.432,2.464-8.229,2.456c-0.993,0-1.952,0.17-2.887,0.414
		c-1.708-0.374-3.416-0.894-5.098-1.561c-5.212-2.033-10.082-5.326-13.522-8.107c-1.724-1.39-3.09-2.642-4.001-3.512l-1.008-1
		l-0.22-0.228l-0.033-0.032H340.7c-3.351-3.643-9.026-3.887-12.677-0.537c-3.651,3.351-3.903,9.026-0.544,12.701
		c0.3,0.309,4.814,5.236,12.205,10.311c3.708,2.537,8.139,5.123,13.237,7.123c1.179,0.464,2.407,0.894,3.668,1.285
		c0.35,0.788,0.797,1.537,1.325,2.244l-0.024,0.017c0.065,0.048,0.553,1.594,0.512,3.578c0.058,3.309-1.146,7.643-2.878,10.033
		c-0.845,1.22-1.707,1.992-2.544,2.472c-0.854,0.472-1.716,0.781-3.334,0.805l-0.578-0.008c-0.342-0.016-0.666,0.041-1,0.057
		c-0.016,0-0.024,0-0.024,0c-7.79,0.033-15.042-3.309-20.393-6.968c-2.667-1.805-4.806-3.643-6.245-4.992
		c-0.708-0.667-1.252-1.22-1.586-1.561l-0.349-0.374l-0.057-0.073h-0.008c-3.244-3.724-8.895-4.131-12.644-0.886
		c-3.757,3.252-4.163,8.92-0.911,12.676l-0.008-0.007c0.35,0.39,4.497,5.17,11.71,10.082c4.748,3.211,10.944,6.537,18.303,8.456
		c-0.081,0.212-0.13,0.423-0.228,0.635c-0.943,2.13-2.293,4.325-5.968,6.472c-2.481,1.416-4.253,2.155-5.497,2.529
		c-1.252,0.374-1.951,0.448-2.846,0.455c-1.162,0.017-2.911-0.244-5.822-0.838c-0.528-0.113-1.056-0.146-1.585-0.178
		c-0.196-0.082-0.382-0.155-0.594-0.261c-2.976-1.399-6.603-3.928-9.278-6.082c-1.342-1.065-2.48-2.041-3.261-2.732l-0.878-0.797
		l-0.203-0.195l-0.041-0.032c-3.586-3.431-9.278-3.301-12.709,0.284c-3.423,3.586-3.293,9.278,0.293,12.701
		c0.187,0.17,3.968,3.798,9.269,7.603c0.943,0.667,1.984,1.342,3.025,2.008c-1.464,2.334-2.992,3.936-4.488,5.001
		c-2.391,1.643-4.993,2.423-8.343,2.44c-3,0.008-6.53-0.732-10.058-2.228c-1.171-0.488-2.317-1.179-3.472-1.821
		c0.675-2.521,1.049-5.131,1.041-7.75c0.008-5.391-1.472-10.904-4.513-15.791c-5.163-8.302-13.774-13.181-22.792-13.978
		c0-0.326,0.056-0.65,0.056-0.984c0.008-5.911-1.618-11.977-4.952-17.344v0.017c-6.228-10.034-17.011-15.58-27.972-15.556
		c-0.422,0-0.854,0.073-1.276,0.09c-0.553-4.66-2.082-9.278-4.699-13.49h0.007c-5.082-8.188-13.229-13.326-22.019-14.937
		c-0.056-5.814-1.658-11.742-4.936-17.011h0.008c-6.22-10.009-17.011-15.563-27.972-15.547c-5.928,0-11.969,1.627-17.344,4.96
		l-11.538,7.172c-0.277-0.634-0.626-1.252-0.878-1.887c-2.008-4.805-3.269-9.546-3.407-12.814l-0.268-5.058l-38.598-33.695
		l73.18-75.792c3.741,3.066,7.579,6.107,11.515,8.953c6.521,4.7,12.985,8.847,19.588,11.628c4.237,1.748,8.367,2.179,12.157,2.187
		c6.066-0.024,11.627-1.065,17.425-1.911c0.374-0.065,0.764-0.097,1.146-0.155c-7.968,6.838-14.921,14.238-20.8,21.126
		c-4.952,5.814-9.131,11.294-12.441,15.766c-3.268,4.448-5.789,8.034-6.895,9.449c-5.448,7.09-7.789,15.571-7.838,24.068
		c0.024,7.904,2.122,16.132,7.57,23.085c2.716,3.439,6.326,6.448,10.635,8.497c4.302,2.065,9.229,3.122,14.36,3.122
		c6.367-0.017,13.042-1.561,20.109-4.53c22.182-9.383,45.047-15.636,62.252-19.49c8.603-1.919,15.799-3.252,20.816-4.09
		c0.944-0.155,1.732-0.285,2.513-0.414l75.271,64.888l0.032,0.016l0.025,0.041C381.73,313.378,381.615,314.053,381.071,315.061z
		 M389.78,260.395l-0.261,5.058c-0.138,2.894-1.122,6.976-2.773,11.205c-0.838,2.211-1.862,4.44-2.935,6.634l-65.92-56.821
		c-2.561-2.211-5.976-3.236-9.334-2.813c-0.585,0.114-48.934,6.18-97.047,26.46c-4.789,2.024-8.383,2.65-10.79,2.634
		c-1.959,0-3.155-0.35-4.041-0.773c-1.285-0.626-2.204-1.513-3.114-3.212c-0.87-1.674-1.464-4.146-1.455-6.748
		c-0.049-3.74,1.285-7.546,2.78-9.35c1.863-2.407,4.139-5.692,7.278-9.937c4.658-6.31,10.985-14.474,18.53-22.418
		c7.529-7.944,16.287-15.636,25.467-21.036c12.417-7.293,22.996-9.123,33.022-9.156c6.171-0.008,12.09,0.764,17.864,1.634
		c5.789,0.854,11.367,1.878,17.417,1.911c3.781-0.008,7.887-0.439,12.108-2.163l0.056-0.016c6.603-2.781,13.067-6.928,19.588-11.628
		c3.912-2.83,7.766-5.887,11.49-8.944l72.035,74.604L389.78,260.395z" />
		</g>
	</symbol>

	<symbol id="folder-data-storage" viewBox="0 0 511.999 511.999" fill="none">
		<g fill="currentColor">
			<g>
				<path d="M454.931,379.761c-4.766-0.984-9.417,2.083-10.398,6.846l-7.196,34.935H74.435L38.171,269.896
			c-1.13-4.728-5.885-7.643-10.609-6.514c-4.729,1.13-7.646,5.88-6.514,10.609l37.879,158.402c0.947,3.961,4.488,6.756,8.561,6.756
			h377.023c4.177,0,7.779-2.935,8.622-7.027l8.643-41.961C462.757,385.397,459.691,380.741,454.931,379.761z" />
			</g>
		</g>
		<g fill="currentColor">
			<g>
				<path d="M510.02,139.818c-1.671-2.05-4.177-3.204-6.823-3.204h-26.741c1.783-7.921,3.849-15.802,5.872-23.499
			c2.563-9.751,5.215-19.833,7.198-29.729c0.519-2.587-0.15-5.269-1.822-7.31c-1.672-2.041-4.171-3.224-6.809-3.224h-70.169
			c-4.862,0-8.803,3.941-8.803,8.803s3.941,8.803,8.803,8.803h59.21c-1.415,5.933-2.998,11.948-4.636,18.18
			c-2.391,9.095-4.84,18.441-6.866,27.975H346.206c-3.897,0-7.33,2.562-8.438,6.297l-9.867,33.229H62.908
			c-3.296-14.889-7.054-29.528-10.707-43.748c-3.705-14.423-7.246-28.209-10.262-41.933h321.197c4.862,0,8.803-3.941,8.803-8.803
			s-3.941-8.803-8.803-8.803H31.104c-0.005,0-0.011,0-0.015,0c-0.006,0-0.011,0-0.015,0c-0.005,0-0.011,0-0.016,0
			c-0.005,0-0.011,0-0.015,0c-0.006,0-0.011,0-0.015,0c-0.006,0-0.011,0-0.015,0c-0.006,0-0.011,0-0.015,0c-0.006,0-0.011,0-0.016,0
			c-0.005,0-0.011,0-0.015,0c-0.007,0-0.012,0-0.015,0c-0.007,0-0.012,0-0.016,0c-0.006,0-0.011,0-0.015,0c-0.006,0-0.011,0-0.015,0
			s-0.011,0-0.015,0c-0.006,0-0.011,0-0.015,0c-0.007,0-0.011,0-0.015,0c-0.006,0-0.012,0-0.015,0c-0.005,0-0.009,0-0.016,0
			c-0.006,0-0.011,0-0.015,0c-0.006,0-0.012-0.001-0.015,0c-0.006,0-0.012-0.001-0.015,0c-0.006,0-0.011-0.001-0.015,0
			c-0.006,0-0.011-0.001-0.015,0c-0.006,0-0.011,0-0.015,0c-0.005,0-0.011,0.001-0.015,0c-0.004,0-0.011,0.001-0.015,0
			c-0.006,0-0.011,0-0.015,0c-0.005,0-0.008,0-0.015,0.001c-0.006,0-0.012,0.001-0.015,0c-0.006,0-0.011,0.001-0.015,0
			c-0.005,0-0.011-0.001-0.015,0.001c-0.005,0-0.011,0.001-0.015,0c-0.005,0-0.015,0-0.014,0.001c-0.005,0-0.009,0-0.014,0
			c-0.009,0.005-0.021,0.001-0.031,0.001c-0.822,0.052-1.624,0.218-2.387,0.488c-0.005,0.001-0.009,0.004-0.013,0.005H28.15
			c-0.003,0.001-0.009,0.007-0.014,0.005c-0.004,0.001-0.008,0.002-0.012,0.005c-0.003,0-0.009,0.004-0.014,0.005
			c-0.004,0-0.009,0.004-0.014,0.005c-0.004,0.001-0.009,0.004-0.014,0.006c-0.002,0-0.008,0.004-0.014,0.005
			c-0.003,0-0.009,0.002-0.014,0.005c-0.004,0.002-0.008,0.004-0.014,0.005c-0.004,0.002-0.009,0.004-0.014,0.005
			c-0.004,0.002-0.008,0.004-0.014,0.005c-0.003,0.001-0.009,0.002-0.014,0.005c-0.005,0.004-0.009,0.004-0.014,0.006
			c-0.006,0.001-0.009,0.004-0.014,0.005c-0.006,0.001-0.009,0.004-0.014,0.006c-0.003,0.002-0.009,0.004-0.014,0.005
			s-0.009,0.005-0.014,0.005c-0.005,0.002-0.009,0.004-0.014,0.006c-0.005,0.001-0.009,0.004-0.014,0.005
			c-0.006,0.001-0.011,0.004-0.015,0.006c-0.005,0.002-0.009,0.005-0.014,0.006c-0.005,0.001-0.009,0.003-0.014,0.006
			c-0.005,0.001-0.009,0.003-0.014,0.005c-0.006,0.002-0.011,0.003-0.014,0.006c-0.006,0.002-0.012,0.003-0.014,0.006
			c-0.004,0.001-0.008,0.004-0.013,0.005H27.8c-0.009,0.004-0.019,0.007-0.028,0.012c-0.599,0.244-1.169,0.555-1.701,0.926
			c-0.004,0.002-0.008,0.006-0.012,0.008c0,0,0,0-0.001,0c-0.003,0.002-0.007,0.005-0.012,0.008
			c-0.005,0.002-0.008,0.006-0.012,0.008h-0.001c-0.004,0.002-0.007,0.005-0.011,0.008h-0.001c-0.003,0.002-0.007,0.006-0.012,0.008
			c0,0,0,0-0.001,0.001c-0.004,0.002-0.007,0.005-0.011,0.007c-0.001,0-0.001,0.001-0.001,0.001
			c-0.003,0.002-0.007,0.005-0.011,0.007l-0.002,0.001c-0.004,0.002-0.006,0.005-0.011,0.007c0,0-0.001,0.001-0.002,0.001
			c-0.003,0.002-0.007,0.005-0.009,0.007c-0.001,0-0.001,0.001-0.002,0.001c-0.002,0.002-0.007,0.005-0.009,0.007
			c-0.001,0-0.001,0-0.002,0.001c-0.004,0.002-0.007,0.006-0.012,0.008c-0.005,0.002-0.008,0.006-0.012,0.008
			c-0.005,0.004-0.008,0.006-0.013,0.009c-0.021,0.015-0.042,0.031-0.062,0.047c0,0-0.001,0-0.001,0.001
			c-0.003,0.002-0.007,0.005-0.011,0.007c-0.002,0.002-0.005,0.004-0.008,0.006c-0.001,0.001-0.002,0.002-0.004,0.002
			c-0.004,0.002-0.007,0.005-0.009,0.007c-0.001,0-0.001,0.001-0.001,0.001c-0.004,0.002-0.007,0.006-0.011,0.008
			c0,0-0.001,0.001-0.002,0.001c-0.003,0.002-0.006,0.005-0.009,0.007c-0.001,0-0.001,0.001-0.001,0.001
			c-0.004,0.002-0.007,0.005-0.009,0.007c-0.001,0-0.002,0.001-0.003,0.002c-0.002,0.002-0.006,0.005-0.009,0.007
			c0,0-0.001,0.001-0.002,0.001c-0.002,0.002-0.006,0.005-0.008,0.007c-0.001,0.001-0.002,0.001-0.004,0.002
			c-0.002,0.002-0.006,0.005-0.009,0.007c0,0-0.001,0.001-0.002,0.002c-0.004,0.002-0.006,0.005-0.009,0.007l-0.001,0.001
			c-0.004,0.002-0.007,0.005-0.011,0.007l-0.001,0.001c-0.003,0.004-0.007,0.006-0.011,0.008c0,0-0.001,0-0.001,0.001
			c-0.004,0.002-0.007,0.006-0.012,0.008c-0.004,0.002-0.007,0.006-0.012,0.008c-0.003,0.002-0.008,0.006-0.012,0.009
			c-0.453,0.357-0.873,0.758-1.254,1.203c-0.002,0.003-0.006,0.007-0.009,0.011v0.001c-0.002,0.004-0.006,0.007-0.009,0.011
			l-0.001,0.002c-0.002,0.002-0.005,0.006-0.007,0.009c-0.001,0.001-0.002,0.002-0.004,0.004c-0.002,0.002-0.005,0.005-0.007,0.008
			c-0.001,0.001-0.002,0.002-0.004,0.003c-0.001,0.002-0.003,0.005-0.006,0.007c-0.001,0.001-0.002,0.003-0.003,0.005
			c-0.002,0.002-0.004,0.005-0.006,0.006c-0.002,0.002-0.003,0.005-0.006,0.007c-0.001,0.001-0.001,0.002-0.002,0.004
			c-0.002,0.003-0.006,0.007-0.009,0.011v0.001c-0.011,0.013-0.021,0.025-0.032,0.038c-0.21,0.256-0.405,0.522-0.583,0.798
			c-0.002,0.005-0.006,0.008-0.008,0.013v0.001c-0.002,0.003-0.005,0.007-0.007,0.012l-0.001,0.001
			c-0.002,0.004-0.005,0.007-0.007,0.011c0,0.001-0.001,0.002-0.002,0.004c-0.001,0.002-0.003,0.006-0.006,0.009
			c-0.001,0.001-0.001,0.002-0.002,0.005c-0.001,0.002-0.004,0.005-0.005,0.008c-0.001,0.001-0.002,0.004-0.004,0.005
			c-0.001,0.002-0.002,0.005-0.005,0.007c-0.001,0.002-0.002,0.003-0.004,0.006c-0.001,0.002-0.002,0.005-0.003,0.007
			c-0.001,0.002-0.002,0.005-0.004,0.006c-0.001,0.002-0.002,0.005-0.002,0.005c-0.002,0.005-0.004,0.007-0.006,0.009
			c-0.001,0.001-0.002,0.002-0.002,0.004c-0.001,0.002-0.004,0.006-0.006,0.009c0,0-0.001,0.002-0.002,0.003
			c-0.001,0.004-0.003,0.007-0.006,0.011v0.001c-0.002,0.005-0.005,0.008-0.007,0.012c-0.697,1.124-1.127,2.384-1.27,3.683
			c-0.002,0.02-0.005,0.04-0.006,0.06c0,0.005-0.001,0.009-0.001,0.015c-0.001,0.015-0.002,0.029-0.005,0.045
			c-0.001,0.02-0.004,0.04-0.005,0.06c-0.074,0.829-0.029,1.67,0.136,2.501c3.514,17.714,8.173,35.85,12.677,53.39
			c3.302,12.85,6.684,26.047,9.711,39.369H8.803c-2.695,0-5.241,1.235-6.911,3.35c-1.669,2.116-2.277,4.879-1.651,7.501
			l12.385,51.79c1.13,4.729,5.885,7.644,10.609,6.514c4.729-1.13,7.646-5.88,6.514-10.609l-9.791-40.94h35.796
			c0.013,0,0.026,0.001,0.04,0.001c0.011,0,0.022-0.001,0.033-0.001h278.641c3.897,0,7.33-2.562,8.438-6.297l9.867-33.228h112.845
			c0.012,0,0.025,0.001,0.038,0.001s0.026-0.001,0.039-0.001h26.7l-40.612,197.177c-0.98,4.762,2.085,9.417,6.846,10.398
			c0.6,0.123,1.197,0.183,1.785,0.183c4.089,0,7.755-2.866,8.613-7.028l42.791-207.755
			C512.352,144.563,511.692,141.868,510.02,139.818z" />
			</g>
		</g>
	</symbol>

	<symbol id="download" viewBox="0 0 24 24" fill="none">
		<line x1="12" y1="3" x2="12" y2="16" stroke="currentColor" stroke-linecap="round" stroke-linejoin="round"
			stroke-width="2" />
		<polyline points="8 12 12 16 16 12" stroke="currentColor" stroke-linecap="round" stroke-linejoin="round"
			stroke-width="2" />
		<path d="M20,16v4a1.08,1.08,0,0,1-1.14,1H5.14A1.08,1.08,0,0,1,4,20V16" stroke="currentColor"
			stroke-linecap="round" stroke-linejoin="round" stroke-width="2" />
	</symbol>

	<symbol id="vk" viewBox="0 0 24 24" fill="none">
		<path fill-rule="evenodd" clip-rule="evenodd"
			d="M23.405 16.865C22.8611 15.7695 22.1444 14.7688 21.2825 13.9013C20.9892 13.5603 20.6453 13.2238 20.3768 12.9612L20.3393 12.9245C20.2008 12.7889 20.0864 12.6764 19.9928 12.5795C21.1713 10.9407 22.18 9.18595 23.003 7.34222L23.0362 7.26783L23.0595 7.18976C23.1676 6.82687 23.2922 6.1368 22.8515 5.51317C22.396 4.86859 21.6666 4.75234 21.1782 4.75234H18.9311C18.4627 4.73087 17.9988 4.85751 17.6058 5.11498C17.2098 5.37439 16.9069 5.75278 16.7402 6.1951C16.2563 7.34779 15.6508 8.4442 14.9347 9.46598V6.83269C14.9347 6.4923 14.9027 5.92289 14.5382 5.44229C14.1018 4.86685 13.4707 4.75234 13.0326 4.75234H9.46708C9.00771 4.74172 8.56094 4.90597 8.2176 5.21259C7.866 5.52659 7.65052 5.96521 7.61687 6.43543L7.61369 6.47997V6.52463C7.61369 7.01011 7.80606 7.36822 7.95975 7.59344C8.02856 7.69427 8.10216 7.78606 8.14865 7.84403L8.15938 7.85741C8.20895 7.91923 8.24204 7.96049 8.27525 8.00566C8.3626 8.12448 8.48824 8.30768 8.52379 8.78174V10.2547C7.9091 9.24423 7.26066 7.89957 6.77276 6.46344L6.76527 6.4414L6.75697 6.41965C6.63532 6.10103 6.4402 5.63743 6.04941 5.28266C5.59288 4.86821 5.0529 4.75234 4.56182 4.75234H2.28187C1.78506 4.75234 1.18613 4.86857 0.739237 5.33999C0.299773 5.80358 0.25 6.35907 0.25 6.65442V6.78755L0.278039 6.91769C0.909544 9.84881 2.21076 12.5937 4.07946 14.9377C4.92668 16.2737 6.07468 17.3936 7.43213 18.2075C8.81124 19.0345 10.3671 19.5219 11.9715 19.6297L12.0133 19.6325H12.0553C12.7811 19.6325 13.5378 19.5699 14.1068 19.1907C14.8744 18.6792 14.9347 17.8936 14.9347 17.5021V16.3642C15.1317 16.5234 15.3761 16.7378 15.6753 17.0259C16.037 17.3879 16.325 17.7016 16.572 17.9754L16.7038 18.122L16.7046 18.1228C16.8964 18.3364 17.0852 18.5467 17.2571 18.7195C17.4732 18.9367 17.7396 19.1761 18.0745 19.3529C18.4371 19.5444 18.8177 19.631 19.222 19.631H21.5035C21.9841 19.631 22.6735 19.5173 23.1582 18.9554C23.6864 18.343 23.6461 17.5924 23.48 17.053L23.4501 16.956L23.405 16.865ZM17.6857 16.9706C17.4289 16.6859 17.1192 16.3484 16.7278 15.9571L16.7246 15.9539C15.3685 14.6464 14.7348 14.4186 14.2868 14.4186C14.0485 14.4186 13.7848 14.4454 13.6137 14.6585C13.5329 14.7591 13.4905 14.8805 13.4667 15.007C13.4429 15.1333 13.4347 15.2816 13.4347 15.4505V17.5021C13.4347 17.7569 13.3928 17.8639 13.275 17.9425C13.118 18.0471 12.7825 18.1319 12.0637 18.1325C10.6993 18.0395 9.37641 17.6244 8.20349 16.9211C7.02817 16.2164 6.03709 15.2425 5.31187 14.0797L5.30398 14.0671L5.29464 14.0554C3.55337 11.8881 2.34003 9.34571 1.7503 6.6291C1.7535 6.49814 1.78187 6.42045 1.82784 6.37195C1.87521 6.32198 1.98999 6.25234 2.28187 6.25234H4.56182C4.81544 6.25234 4.9467 6.30751 5.04117 6.39327C5.14827 6.4905 5.24116 6.65561 5.35401 6.95042C5.91362 8.5964 6.67038 10.1357 7.387 11.2675C7.74518 11.8332 8.09769 12.3041 8.41529 12.6368C8.57383 12.803 8.72932 12.9406 8.8777 13.0385C9.02132 13.1332 9.18414 13.2079 9.35158 13.2079C9.43994 13.2079 9.54328 13.1988 9.64279 13.1547C9.74983 13.1074 9.83291 13.0284 9.89158 12.9225C9.99536 12.7353 10.0238 12.458 10.0238 12.0947V8.73099L10.0233 8.7231C9.97146 7.90476 9.72439 7.44443 9.48381 7.11718C9.43108 7.04546 9.37909 6.98068 9.33359 6.92399L9.32113 6.90846C9.27117 6.84616 9.23142 6.79582 9.19876 6.74795C9.13891 6.66024 9.11571 6.59909 9.11381 6.53356C9.12162 6.45578 9.15828 6.38361 9.21675 6.33139C9.27744 6.27719 9.35686 6.24897 9.43816 6.25234H13.0326C13.2387 6.25234 13.3081 6.30262 13.343 6.34868C13.3923 6.4137 13.4347 6.54893 13.4347 6.83269V11.3613C13.4347 11.8992 13.6827 12.2634 14.0428 12.2634C14.4572 12.2634 14.7559 12.012 15.2783 11.4896L15.287 11.4809L15.2948 11.4713C16.4656 10.0436 17.4225 8.45298 18.1347 6.74943L18.1392 6.73666C18.1928 6.58613 18.2941 6.45726 18.4278 6.3697C18.5614 6.28215 18.72 6.24072 18.8794 6.25175L18.8881 6.25234H21.1782C21.4905 6.25234 21.5933 6.33183 21.6265 6.37884C21.6618 6.42885 21.6864 6.53604 21.6264 6.74625C20.8053 8.58266 19.7899 10.3258 18.598 11.9464L18.5905 11.9578C18.4748 12.1348 18.3479 12.3306 18.3295 12.5554C18.3098 12.7968 18.4143 13.0163 18.597 13.2515C18.7302 13.4484 19.0049 13.7173 19.2836 13.9901L19.3099 14.0158C19.6021 14.3018 19.9186 14.6116 20.1727 14.9116L20.1795 14.9195L20.1869 14.9269C20.9444 15.6825 21.5743 16.556 22.052 17.5132C22.1283 17.7738 22.0816 17.907 22.0223 17.9757C21.953 18.0561 21.7976 18.131 21.5035 18.131H19.222C19.0438 18.131 18.9063 18.0959 18.7749 18.0265C18.638 17.9542 18.4972 17.8392 18.3206 17.6617C18.1784 17.5187 18.023 17.3457 17.8334 17.1348C17.7864 17.0825 17.7373 17.0277 17.6857 16.9706Z"
			fill="currentColor" />
	</symbol>

	<symbol id="telegram" viewBox="0 0 24 24" fill="none">
		<path fill-rule="evenodd" clip-rule="evenodd"
			d="M5.78754 14.0196C5.83131 14.0344 5.87549 14.0448 5.91963 14.0512C5.96777 14.1644 6.02996 14.3107 6.10252 14.4818C6.27959 14.8994 6.51818 15.4643 6.76446 16.0535C7.2667 17.2552 7.77332 18.4939 7.88521 18.8485C8.02372 19.2868 8.17013 19.5848 8.32996 19.7883C8.4126 19.8935 8.50819 19.9853 8.62003 20.0549C8.67633 20.0899 8.7358 20.1186 8.79788 20.14C8.80062 20.141 8.80335 20.1419 8.80608 20.1428C9.1261 20.2636 9.41786 20.2133 9.60053 20.1518C9.69827 20.1188 9.77735 20.0791 9.8334 20.0469C9.86198 20.0304 9.88612 20.0151 9.90538 20.0021L9.90992 19.9991L12.7361 18.2366L16.0007 20.7394C16.0488 20.7763 16.1014 20.8073 16.157 20.8316C16.5492 21.0027 16.929 21.0624 17.2862 21.0136C17.6429 20.9649 17.926 20.8151 18.1368 20.6464C18.3432 20.4813 18.4832 20.2963 18.5703 20.1589C18.6148 20.0887 18.6482 20.0266 18.6718 19.9791C18.6836 19.9552 18.6931 19.9346 18.7005 19.9181L18.7099 19.8963L18.7135 19.8877L18.715 19.8841L18.7156 19.8824L18.7163 19.8808C18.7334 19.8379 18.7466 19.7935 18.7556 19.7482L21.7358 4.72274C21.7453 4.67469 21.7501 4.62581 21.7501 4.57682C21.7501 4.13681 21.5843 3.71841 21.1945 3.46452C20.8613 3.24752 20.4901 3.23818 20.2556 3.25598C20.0025 3.27519 19.7688 3.33766 19.612 3.38757C19.5304 3.41355 19.4619 3.43861 19.4126 3.45773C19.3878 3.46734 19.3675 3.47559 19.3523 3.48188L19.341 3.48666L2.62725 10.0432L2.62509 10.044C2.61444 10.0479 2.60076 10.053 2.58451 10.0593C2.55215 10.0719 2.50878 10.0896 2.45813 10.1126C2.35935 10.1574 2.22077 10.2273 2.07856 10.3247C1.85137 10.4803 1.32888 10.9064 1.41686 11.6097C1.48705 12.1708 1.87143 12.5154 2.10562 12.6811C2.23421 12.7721 2.35638 12.8371 2.44535 12.8795C2.48662 12.8991 2.57232 12.9339 2.6095 12.9491L2.61889 12.9529L5.78754 14.0196ZM19.9259 4.86786L19.9236 4.86888C19.9152 4.8725 19.9069 4.87596 19.8984 4.87928L3.1644 11.4438C3.15566 11.4472 3.14686 11.4505 3.138 11.4536L3.12869 11.4571C3.11798 11.4613 3.09996 11.4686 3.07734 11.4788C3.06451 11.4846 3.05112 11.491 3.03747 11.4978C3.05622 11.5084 3.07417 11.5175 3.09012 11.5251C3.10543 11.5324 3.11711 11.5374 3.1235 11.54L6.26613 12.598C6.32365 12.6174 6.37727 12.643 6.42649 12.674L16.8033 6.59948L16.813 6.59374C16.8205 6.58927 16.8305 6.58353 16.8424 6.5768C16.866 6.56345 16.8984 6.54568 16.937 6.52603C17.009 6.48938 17.1243 6.43497 17.2541 6.39485C17.3444 6.36692 17.6109 6.28823 17.899 6.38064C18.0768 6.43767 18.2609 6.56028 18.3807 6.76798C18.4401 6.87117 18.4718 6.97483 18.4872 7.06972C18.528 7.2192 18.5215 7.36681 18.4896 7.49424C18.4208 7.76875 18.228 7.98287 18.0525 8.14665C17.9021 8.28706 15.9567 10.1629 14.0376 12.0147C13.0805 12.9381 12.1333 13.8525 11.4252 14.5359L10.9602 14.9849L16.8321 19.4867C16.9668 19.5349 17.0464 19.5325 17.0832 19.5274C17.1271 19.5214 17.163 19.5045 17.1997 19.4752C17.2407 19.4424 17.2766 19.398 17.3034 19.3557L17.3045 19.354L20.195 4.78102C20.1521 4.79133 20.1087 4.80361 20.0669 4.81691C20.0196 4.83198 19.9805 4.84634 19.9547 4.85637C19.9418 4.86134 19.9326 4.86511 19.9276 4.86719L19.9259 4.86786ZM11.4646 17.2618L10.2931 16.3636L10.0093 18.1693L11.4646 17.2618ZM9.21846 14.5814L10.3834 13.4567C11.0915 12.7732 12.0389 11.8588 12.9961 10.9352L13.9686 9.997L7.44853 13.8138L7.48351 13.8963C7.66121 14.3154 7.90087 14.8827 8.14845 15.4751C8.33358 15.918 8.52717 16.3844 8.70349 16.8162L8.98653 15.0158C9.01381 14.8422 9.09861 14.692 9.21846 14.5814Z"
			fill="currentColor" />
	</symbol>

	<symbol id="email" viewBox="0 -4 32 32" fill="none">
		<g transform="translate(-412, -259)" fill="currentColor">
			<path
				d="M442,279 C442,279.203 441.961,279.395 441.905,279.578 L433,270 L442,263 L442,279 L442,279 Z M415.556,280.946 L424.58,271.33 L428,273.915 L431.272,271.314 L440.444,280.946 C440.301,280.979 415.699,280.979 415.556,280.946 L415.556,280.946 Z M414,279 L414,263 L423,270 L414.095,279.578 C414.039,279.395 414,279.203 414,279 L414,279 Z M441,261 L428,271 L415,261 L441,261 L441,261 Z M440,259 L416,259 C413.791,259 412,260.791 412,263 L412,279 C412,281.209 413.791,283 416,283 L440,283 C442.209,283 444,281.209 444,279 L444,263 C444,260.791 442.209,259 440,259 L440,259 Z" />
		</g>
	</symbol>

	<symbol id="github" viewBox="0 0 192 192" fill="none">
		<path stroke="currentColor" stroke-linecap="round" stroke-linejoin="round" stroke-width="12"
			d="M120.755 170c.03-4.669.059-20.874.059-27.29 0-9.272-3.167-15.339-6.719-18.41 22.051-2.464 45.201-10.863 45.201-49.067 0-10.855-3.824-19.735-10.175-26.683 1.017-2.516 4.413-12.63-.987-26.32 0 0-8.296-2.672-27.202 10.204-7.912-2.213-16.371-3.308-24.784-3.352-8.414.044-16.872 1.14-24.785 3.352C52.457 19.558 44.162 22.23 44.162 22.23c-5.4 13.69-2.004 23.804-.987 26.32C36.824 55.498 33 64.378 33 75.233c0 38.204 23.149 46.603 45.2 49.067-3.551 3.071-6.719 9.138-6.719 18.41 0 6.416.03 22.621.059 27.29M27 130c9.939.703 15.67 9.735 15.67 9.735 8.834 15.199 23.178 10.803 28.815 8.265" />
	</symbol>

	<symbol id="habr" viewBox="0 0 24 24" fill="currentColor">
		<path
			d="m1.14 9.295.17.253c-.34-.01-.696-.043-.764-.189 0-.007.002-.014.004-.021.19-.05.353-.053.59-.043zm1.806.77.082.25-.192.008.046-.256a.685.685 0 0 0 .064-.003zM3.6 11.89c-.17.156-.301.26-.402.497-.14-.115-.213-.343-.258-.598-.05-.278-.066-.587-.104-.818l.012-.118.197-.014.502.95.053.1zm-.254-2.342a60.527 60.527 0 0 1 .077-.512l.065-.004c-.048.172-.096.344-.142.516zm-.137-2.322.9.244a1.975 1.975 0 0 0-.004.04c-.419.31-.806.446-1.014 1.006L3.17 7.27l.039-.043zm.84-1.29c-.058.58.024.836.125 1.196.16.114.224.183.172.352-.27-.134-.556-.274-.97-.252a2.799 2.799 0 0 1-.03-.035c.116-.457.342-.738.517-1.1l.187-.162zm1.294-.772.039-.003c-.124.428-.174 1.415-.391 1.807-.513-.243-.503-1.296.071-1.712l.28-.092zm-.478 3.17.432.469c-.17.522-.491.915-.627 1.52l-.255-.02c-.218-.609.327-1.601.42-2.045l.4.046c.05.125.098.25.147.376l-.517-.347zM6.047 5.16c-.044.507.068.77.098 1.162-.254.13-.509.258-.763.387a5.262 5.262 0 0 1 .373-1.527l.292-.022zm.296-.77.057-.004-.086.247-.169.011.13-.153.068-.101zM6.4 6.755l-.764.47c.016-.284.378-.667.681-.773l.07.038.013.265zm.51-1.778c-.047.262-.093.523-.138.785l-.143.09-.076.083c-.138-.194-.173-.67-.143-1.032l.5.074zm.508-.59c0 .01-.002.018-.003.026L7.22 4.6c-.13.05-.146.048-.31.042.021-.085.045-.17.068-.255h.44zm.51-1.032L7.7 3.87l-.79-.057.003-.042c.325-.15.61-.328 1.014-.417zm-.412 1.34.084-.05.073.258-.255-.05.098-.159zm.666.763c-.303.118-.722.085-.965.22a77.912 77.912 0 0 0-.053-.31l.158-.207c.257.1.514.202.77.303l.09-.006zm-.651.464-.346.013c-.008-.036-.014-.072-.021-.109.243-.099.651-.108 1.018-.149l-.387.213-.264.032zm.905 0c-.291.073-.57.33-.761.53-.037-.234.412-.646.627-.775.095.085.105.076.134.245zm.51-3.083-.004.04-.306.185-.454.033.004-.04.76-.218zm-.412.774-.098-.145c.23-.193.737-.087 1.019-.058l-.921.203zm2.278-.76c.425.035.814.135 1.11.32L12 3.168l-.047.066-.407.12c-.245-.034-.49-.07-.734-.105L9.2 3.02l.004-.033a5.375 5.375 0 0 1 1.608-.133zm1.693-.136-.09.122a1.23 1.23 0 0 1-.67-.258l.764.097-.004.039zm1.356.954.211-.08.219.188c-.03.215-.237.391-.396.6l-.122.008c-.332-.55-.751-1.151-1.486-1.363l-.032-.065.297-.12c.499.174.915.438 1.378.59.06.145.041.096-.07.242zm.614 1.223-.058-.057-.126.009.21-.2-.026.248zm.225 2.848c.344.298.432.73.289 1.29-.148-.332-.295-.665-.444-.997.05-.074.097-.148.146-.222.003-.024.005-.048.009-.071zm.1-2.32-.004.048-.181.207-.07-.137c.109-.195.03-.09.173-.11l.082-.008zm.212-.003.806.299a1.034 1.034 0 0 1-.007.08c-.068.047-.136.092-.204.137l-.807-.298.007-.081.205-.137zm1.57 1.033-.447-.297-.062-.12c.194-.12.166-.114.371-.074.045.164.092.327.138.49zm.254-.098-.09.098c-.108-.056-.127-.127-.164-.259l.233.102.021.059zm-.19-.739-.064.005c.07-.067.14-.134.212-.2-.05.065-.1.13-.148.195zm1.209 1.298-.125.055a230.14 230.14 0 0 1-.681-.383 98.74 98.74 0 0 1-.213-.29c.353-.26.366.042.699.207l.32.411zm.254.228-.254-.093.153-.08.101.173zm-.31.416c.092.185.092.133.31.105L17.718 8l-.373-.712.005-.044c.275-.059.363.04.632.08l.103.166-.285.067zm.056.463.509-.278c-.102.23-.235.348-.392.516l-.117-.238zm1.018.985c-.138.119-.228.157-.489.179l.21.023-.004.037-.717.304-.018-.92.494-.585.09-.043.434 1.005zm-.255-1.412c1.406-.392 1.134.354.507.923-.17-.307-.339-.615-.507-.923zm1.273.149c-.518 2.434-.618 2.567-2.45 3.613a3.302 3.302 0 0 0-.096-.145l.065-.272c1.195-.34 1.874-.966 1.803-2.383l.599-.77.079-.043zm.062 0c-.02-.084-.04-.168-.062-.252l.19-.006-.128.258zm-3.117 2.367.018-.269.016-.23.176-.059c.009 0 .017-.002.025-.003.05.305 0 .53-.1.775-.086-.055-.103-.078-.135-.214zm-1.018 2.258.004-.045.334-.799.07-.168.588.04c.009.044.015.087.018.128.026.304-.079.547-.187.864l-.827-.02zm.255 1.036.007-.4.01-.1.43.032.062-.005c-.099.163-.197.326-.294.49l-.215-.017zm-.252-1.67.026-.013.203-.105.023-.002-.03.107-.119.409-.106-.364.003-.032zm-.397 1.285-.115-.115c.112.078.039.002.115.115zm-.624-.307c.143-.09.298-.062.51-.06l-.063.207c-.175.07-.2.044-.397.023l-.05-.17zm.312.966.197.466c-.152.103-.305.205-.457.309-.136-.187.012-.71.26-.775zm-.503-1.62-.064.005.084-.191-.02.187zm.733.072-.033-.021.112-.236.037-.001.106.248-.222.01zm1.763-3.355-.014-.087c.067-.082.11-.133.225-.17l.03.152c-.05.033-.1.065-.149.099l-.092.006zm-.014.63c-.046.061-.128.095-.186.144l-.069-1.29.255 1.146zm-.467 1.73c.168-.094.192-.007.212.22h-.509l.009-.08.288-.14zm-.25-.713.115-.098.093.166-.043.092-.212-.025.047-.135zm-.047.684-.265.25-.173-.029-.07.007c.04-.079.082-.158.123-.236l.385.008zm-.96-.147c-.106-.074-.03-.064-.05-.12l.05.12zm.802-1.152-.86-.446c.04-.59.112-1.268.054-1.876.663.24 1.258 1.319.806 2.322zm-.605 0c.211.112.2.214.493.304.051.191-.027.267-.149.47l-.312-.012c-.064-.34.006-.535-.032-.762zm.058 1.669c-.107-.074-.03-.064-.05-.12l.05.12zm1.723-2.484.003-.048.23-.169c.04.264.025.704-.035 1.032-.136-.106-.161-.554-.198-.815zm0 .815c.052-.086.104-.172.154-.258l-.09.254-.064.004zm1.485-.771.043-.003c.012.989-.598 1.169-1.4 1.54l-.128.009.5-1.036.985-.51zm-1.51-1.932c.008.026.017.051.024.077l-.063.046-.191-.258.23.135zm-.23.43.007-.045a3.35 3.35 0 0 1 .056-.004l.192.258c-.148-.07-.172-.088-.255-.21zm.254.66-.343.323-.737-1.07-.956-.83.21-.164c.463.2 1.273.581 1.436 1.057.053.155-.13.283-.006.412.148.154.296.044.397.271zm-2.148 1.613.078.031.034.744-.119-.028c-.112-.083-.19-.467-.088-.634l.095-.113zm-.564 1.294.082-.003.085.202-.13.05-.125.006c.03-.085.06-.17.088-.255zm-.232 4.126-.11-.377c.157-.045.313-.09.47-.137l.04-.002a.527.527 0 0 0-.005.035l-.395.48zm-.365-1.032c.047-.152.08-.175.165-.259l.07.028.02.066-.157.154-.098.01zm.12.258-.12-.132.255-.126-.066.253-.069.005zm-.268 1.17c-.036-.028-.07-.057-.106-.087l.078-.005.393-.304.038.31-.301.206-.102-.12zm.02 2.956c-.613.026-.98-.13-1.48-.174l-.573-1.133-.11-.114c.962-.114 1.567-.578 2.28-.899.252.24.823 1.462.32 2.003-.12.185-.255.204-.438.317zm-2.632-1.273.23-.015c.347.233.583.65.749 1.033l-1.019-.295c.076-.258.108-.52.04-.723zm-.732-.974L11.691 16l1.804.176.032.091c-.537.242-1.148.446-1.764.758-.667.053-.828-.196-1.29-.36l.071-.334zm-.071 1.216.023-.224.439-.033c.036.195.074.304.02.516l-.482-.26zm-.51.404.171-.094c.21-.139.367.046.593.119l-.09.088-.673-.113zm.495-.403a15.96 15.96 0 0 1-.166-.075l-.074-.183.255.016-.015.242zm-.749 0 .255.219c0 .135-.012.12-.043.297l-.212-.516zm-.66-.967c.239-.073.557-.057.915-.065l-.333.258-.685-.067.103-.126zM8.436 3.648c.473-.452 1.659-.317 1.956-.03l.08-.007c-.395.369-1.007.411-1.383.776-.295-.196-.539-.322-.653-.739zm2.6.739.2.227c-.178.01-.365.021-.552.037-.421.036-.837.099-1.128.25l-.038.002a51.163 51.163 0 0 1-.063-.099 3.644 3.644 0 0 1 1.544-.414l.037-.003zm.992-1.29c.329.33.82.526.99 1.032-.69-.321-1.752-.316-2.29-.827.474.101.878.063 1.3-.205zm.227 1.806.944.13.074-.006-.757.65c-.12-.239-.148-.563-.261-.774zm1.213 1.104-.195-.03.254-.042-.06.072zm-.195-.617.233-.229.021.258-.169-.037-.085.008zm.462 8.54-.112.005-.096-.09.074-.097.18-.07-.046.253zm-.203.472c.03-.036.062-.072.094-.108l.008-.1.148.235-.255.023.005-.05zm-.101.824-.158-.19.509-.068-.243.25-.108.008zm.096.774-.509-.061.36-.197.15.258zm-.357-.728.103.098-.369.094-.395.02.55-.258.111.046zM11.746 4.129c.297.008.611.083.763.258-.205-.02-.574.013-.667-.145l-.096-.113zm.258 1.032c.145.127.196.277.17.516-.224-.077-.166-.322-.17-.516zm.25 1.627.009-.044c.507-.11.616.066.385.224-.2-.028-.29-.103-.393-.18zm.653 6.631.111.028a1.49 1.49 0 0 0-.004.036l-.25.194.104-.255.039-.003zm-.14-6.294.19-.157.061.258-.254-.056.002-.045zm.76 6.9-.615.161-.148.007c0-.008.002-.017.004-.025.23-.046.378-.122.514-.233l.216.04.03.05zm-.439-.606-.07-.143.175-.115.08.043-.1.208-.085.007zm-1.597 1.785.303-.236.938.08.032.07-.634.366c-.235-.039-.438-.143-.56-.286l-.08.006zm-.471.022.47.258-.763-.135c.098-.04.195-.082.293-.123zm-.038.527a7.12 7.12 0 0 0-.003.062l-.145.08-.107.014.004-.062c.111-.147.092-.098.25-.094zM9.782 5.25a6.022 6.022 0 0 0-.073-.077c.253-.138.652-.204 1.044-.235.323-.027.641-.03.869-.035l.124.774c-.333-.036-.65-.08-.993-.095a5.2 5.2 0 0 0-.888.032 41.055 41.055 0 0 0-.083-.364zm.374 10.355.062.11-.06.231-.703.054c.075-.23.187-.341.308-.516l.393.121zm-.868-.895c-.32-.018-.758-.252-.852-.516l1.019.259-.167.257zm.358-.014-.191.014.006-.062.212-.196c-.01.081-.018.162-.027.244zm-.7-9.437.31-.098.199.25-.21.008-.3-.16zm-.004 11.08c-.017.056-.032.113-.048.17a.884.884 0 0 0-.074.007 92.65 92.65 0 0 0-.129-.258l.255.026-.004.055zm.141-1.113.594.12.032.08-.461.574-.557-.082.392-.692zm4.444-8.088.115-.169.042-.001.32.08.032.046-.357.132a41.52 41.52 0 0 0-.152-.088zm.689-.834-.18-.11c.183.067.078-.009.18.11zm-.058 1.18-.122-.104.255-.154-.133.258zm-.122 1.806.396.098c.107.042.104.053.113.16-.17-.065-.454-.11-.509-.258zm.04-.703.054-.07.161.257-.255-.05.04-.137zm-5.157 8.491.027.068-.343.131-.167.013.004-.035.117-.183c.162-.075.166-.026.362.006zm-.737-12.95c.222.166.28.37.245 1.033-.146-.187-.235-.584-.245-1.032zm.146-.515L8.31 3.8l-.127.009.146-.196zm-.146.258c-.007.062-.012.124-.02.186l-.235-.043.194-.139.06-.004zm0 14.968.126-1.314.892-.235-.938 1.501-.08.048zm.063-3.532.137-.081c.125.148.013.361-.105.516-.098-.092-.109-.15-.083-.359l.05-.076zm-.827-.126.293-.471.47.276c-.16.252-.323.504-.485.756-.146-.13-.236-.321-.278-.56zm0 2.021.47-.428.221.02.073.12c-.02.126-.038.251-.056.376l-.708-.088zm-.763-.35.56-.336.426.067.032.059-.449.39c-.224-.023-.373-.083-.49-.185l-.08.005zm-.075-.499.205-.095.088.019.036.042-.593.197-.17-.06.434-.103zm-.689-.242.15-.363c.278-.036.344.101.553.188l.06.092-.311.213-.253.017-.199-.147zm-.51 1.059.371-.654c.246 0 .276.02.377.15.045.076.006.035-.092.052l-.023.225.386.06c-.076.189-.088.164-.202.284-.38.02-.551-.052-.816-.117zm-.428-.912.647.195.036.077-.415.502-.603-.198.335-.576zM2.46 15.56l.008-.077.361.278.031.074c-.751.58.398 2.47 1.705 1.245l.562.226c-.216.385-.587.537-.978.755-.935.078-2.244-1.449-1.69-2.501zm.872.264.014.175c-.07-.053-.14-.104-.208-.157l-.047-.101.24.083zm1.286 1.096-.465.36c-.916.096-1.287-.538-1.317-1.317l.179-.216.078-.006c.461.363.869.917 1.495 1.1l.03.079zm-.887-3.76c-.083-.06-.088-.09-.13-.192l.174-.662.203-.178.131.192-.378.84zm-.13.223.401-.949.082-.048c.185.326.453.474.534.917l-.604.631a1.223 1.223 0 0 1-.414-.55zm.763.79.51-.497.253.517a95.872 95.872 0 0 0-.763-.02zm1.272-5.215c-.241.515-.562.865-.754 1.364-.084-.453.422-1.104.585-1.504l.078-.045.091.185zm0-1.42c.379-.117.633-.331.904-.571l.115.344-.322.43-.697-.202zm1.273.027-.138.176-.116-.02.002-.028.232-.21.02.082zm-.2-1.112.04-.002.16.337-.06.179c-.233-.122-.224-.267-.14-.514zm-.048 7.481.235.169-.241-.106a1.03 1.03 0 0 1 .006-.063zm-.004.259.252.109a.9.9 0 0 0-.004.03l-.54.377c-.155-.07-.174-.209-.22-.36l.005-.032.507-.124zm-.753-.517.242.098-.13.075-.125.014.013-.187zm-.013-5.16c.306.086.209.028.222.257-.14-.082-.15-.121-.222-.258zm0 4.609.021-.223c.119.083.16.132.234.258a61.01 61.01 0 0 0-.255-.035zm.51-3.223c-.096.123-.092.09-.255.161l.111-.258.143.097zm0-1.038-.16.167c-.16-.09-.085-.054-.013-.221l.095-.037.077.091zm-.021-.439-.234-.168c.18.069.138.027.234.168zm-.489 4.735.255.203c-.13-.003-.2-.031-.255-.203zm.764-.01-.104.01-.089-.164-.062-.08.138-.014c.039.083.077.166.117.248zm-.14-4.778L6.4 8.258c.112.078.038.002.114.115zm.015 4.25-.13-.27.055-.222.032-.002.168.516a37.21 37.21 0 0 0-.125-.022zm-.667 3.003.028.034L5.8 16a.697.697 0 0 1-.418-.516l.481.142zM5.127 16l.255.226c-.163-.072-.173-.069-.255-.226zm.44-2.288.03.223-.215-.258.185.035zm-.252 1.207-.188-.467c.223.085.397.34.51.516l-.322-.049zm.2-4.594.063-.002-.186.258c-.03-.064.007-.125.11-.2l.013-.057zm-.133 2.218-.051.102-.146-.113a116.8 116.8 0 0 1-.058-.123l.2-.022.055.156zM3.6 14.71c.51.332 1.377.64 1.527 1.29A4.234 4.234 0 0 1 3.6 14.71zm1.323-.25.204.25-.509-.258.305.008zm1.864.766-.387-.39.677-.642.087.707-.377.325zm.377.431.067-.168.09-.005.097.258-.254-.085zm.343-.947-.089-.258.185.034-.096.224zm-.343-8.69.002-.023c.084-.02.168-.04.252-.062l-.176.258-.078-.173zm-2.567 5.335-.233-.516c.299.065.25.278.233.516zm-.623.258c-.218-.151-.357-.452-.374-.774.447.105.422.281.51.689l-.136.085zm-.263-1.347c-.325-.307.148-1.535.356-1.818.11-.139.248-.136.43-.19l.121.031c-.306.542-.512 1.28-.585 2.034l-.322-.057zm-.475 4.186.155.261-.139.325-.08.085c.114.016.14-.082.31-.221.33.535.834 1.047 1.39 1.338l-.303.534-.92-.592c-.105-.195.04-.419-.129-.538-.153-.108-.35.048-.506.001l-.432-.396c.127-.284.249-.562.5-.707l.154-.09zm-.88-2.846a6.65 6.65 0 0 1 .149-.764l.034-.003.133.767.07.4c.2.558.402 1.115.604 1.671-.484-.264-.783-.875-.74-1.697-.116.265-.02.682.018.916-.297-.252-.335-.753-.269-1.29zm-.442.265a.941.941 0 0 1-.086-.31 2.031 2.031 0 0 1 .004-.435l.044-.092.197-.195-.111.721-.048.31zm17.722 2.58-.509-.196.494-.061.015.258zm-13.47 4.2.133-.07-.154.257.02-.186zM2.327 9.807l-.217-.02c-.27-.089-.523-.404-.546-.754.413.037.553.233.757.472.002.1.005.201.006.302zm-.03-.021c.03-.557-.395-.905-.947-.89.094-.782.774-1.182 1.38-1.445l.117-.009c-.101.982-.024 1.828-.391 2.678-.271.626-1.232.614-1.18 1.58l.007.08c.137 1.284 1.533 1.545 1.726 2.674-2.07 1.053.453 5.478 2.09 2.879.294.042.555.175.92.047.17-.094.203-.17.269-.366l.585.303.03.074c-.536.416-.914.987-1.49 1.377l.055-.158-.15-.027-.083.045-.075.35c.329.336 1.326-.879 1.618-1.117-.165.577-.573.874-.8 1.402l.07.072c.43-.308.957-1.18 1.037-1.843l.644.107c-.807 1.091-2.88 3.491-3.97 4.132.166-.521.43-.919.564-1.347l-.078.006a14.401 14.401 0 0 0-.07-.072c-.265.522-.702.889-.78 1.593a.688.688 0 0 0 .174.179c1.296-.216 3.46-3.473 4.494-4.363-.28 2.81-1.786 3.248-3.092 4.95 1.187-.592 1.907-2.102 2.922-2.94C7.781 20.91 7.502 23.533 6.8 24l.116-.009c.788-.49.834-2.505 1.097-3.535l.112-1.083 1.125-1.58.082-.045c.126.395.696.824 1.313.709l.443-.186 1.112.416c.146 1.6.09 2.497-.923 3.715 1.035-.529 1.415-2.567 1.07-3.649 2.407.279 2.31-.533 1.854-2.286l.423.007c-.078-.117-.289-.03-.45-.12-.073-.047-.059-.038-.104-.108.572-.645 1.95-.004 1.66 1.067.396-.888-.479-1.678-1.322-1.36.36-.427.796-.778 1.024-1.343l.082-.044 1.98 2.08.117-.009.09-.122c-.63-.746-1.259-1.493-1.887-2.24l.202-.092a.41.41 0 0 1 .349-.121 22.552 22.552 0 0 1-.1-.05c1.011.101 2.303.944 3.358.672.097-.169.102-.26.043-.425 1.124.028 3.146-.348 3.79-.894-1.73.363-3.678.486-5.266.274l-1.407-.165-.079.006.379-.68c1.16-.022 4.202-.051 4.817-.779l-.136-.182-.53-.076a.394.394 0 0 0-.06.197l.42.045c-.912.23-3.452.715-4.281.432-.087-.106-.023-.474-.019-.739a.968.968 0 0 0-.006-.142c1.192-.356 2.077-1.158 2.44-2.368.207-.693.07-1.603.518-2.035.286.025.344.146.554.228-.111-.154-.27-.24-.469-.31l-.373.257c-.341.132-.698-.213-1.277.056-.47-.402-.735-1.037-1.37-1.28l-.065-.11.77-.749c-.252.211-.509.46-.766.71l-.516-.231-.03-.075c.588-.416 1.11-.57 1.779-.438.031.062.064.123.096.185-.031.053-.059.068-.086.083l-.225-.06c.097.057.198.075.299.093l.085-.083.013-.116c-.146-.13-.191-.224-.478-.234l.137-.202c-.328.226-.994.286-1.32.482l.754-.594.09-.121-1.395.832c-.298-.02-.615-.16-.776-.327a39.46 39.46 0 0 0-.077.006l1.656-1.12-.027-.113c-.628.366-1.257.732-1.884 1.099l-.602-.148.056-.541 4.317-3.39.077-.006-.061-.149c-.16-.076-.817.457-1.065.616-.956.613-1.801 1.376-2.741 1.93.388-.493 1.098-.984 1.216-1.702l-.19-.024-.296.252.322-.14c-.208.633-1.15 1.763-1.682 2.121l-.062-.149c.346-.582.687-1.365.527-2.112l-.29-.17-.311.023c.199.079.334.098.48.195.093.724-.263 1.214-.455 1.8l-.082.044c-.128-.237-.12-.351-.383-.394l-.023-.152.18-.244.124-.086c.042.08.044.051.057.188a.388.388 0 0 0 .059-.196l-.147-.066-.389.412c-.325-.217-.683-.445-1.14-.53.259-.537 1.046-1.4.64-2.081-.496-.828-2.189.126-2.809.783a1.231 1.231 0 0 0-.186.244 9.02 9.02 0 0 1 .186-.144c.612-.456 2.241-1.548 2.594-.675.37.487-.339 1.424-.532 1.805-.66-.067-1.35-.13-2.06-.116a7.422 7.422 0 0 0-2.201.354c-.36.119-1.896 1.039-1.955 1.027l-.7-.678-1.464-.735-.008.077-.086.083 1.876 1.588-.286.175c-.772-.585-1.304-.94-2.453-1.239l-.194.015c.671.462 1.347.885 2.022 1.309l.135.182c-.482.203-.686.625-1.093.887-.636-.304-1.225-.58-1.996-.813l-.054.158 1.444.93.078-.006-.249.172c-.115.387-.34.836-.528 1.382-.72.586-1.653.551-1.798 1.745-.23.063-.392.083-.602.237l-.016.155c.132.184 1.301.679 1.58.727l.172-.166zm8.54-8.256.107.02-.143-.018c-.025 0-.05.002-.074.003.113-.21.445-.262.764-.239l-.022.152-.624.031-.008.05zm.446.277.3-.098c.13-.216.204-.445.138-.654-.309-.061-.487.014-.776.136a49.67 49.67 0 0 0-.157.257l-.06.1a.57.57 0 0 0 .06.06c.098.08.216.108.433.09.06.102-.01.057-.117.085l.18.024zm7.403 2.323-.322.06.198-.014.227.098-.344.63c.177-.209.353-.357.428-.674l-.187-.1zm-1.85 10.065c-.08-.143-.167-.237-.254-.259.077.073.166.159.254.259zm-1.018 3.096-.254.148.195-.018.06-.13zm1.018-3.096c.259.292.453.852.397 1.29.294-.635-.041-1.031-.397-1.29z" />
	</symbol>

	<symbol id="hh-ru" viewBox="200 300 600 360" fill="currentColor">
		<path d="M743.25,426.2499695c-15.125-15.6000061-36.625-24.125-62.875-24.125
    c-32.625,0-57.6749878,13.2500305-72.1000366,38.0750122V317H532.625v337.5999756h75.6500244V535.9000244
    c0-27.6499634,5.6749878-45.3750305,14.2000122-55.7749634c8.25-10.4000244,19.8500366-14.4250183,32.375-14.4250183
    c11.125,0,19.8500366,3.5500183,26,9.9249878c6.1500244,6.625,9.7000122,16.8000183,9.7000122,30.9750061v147.75h75.6500244
    V491.7000427c0-27.6500244-8.0500488-50.125-22.9249878-65.5000305L743.25,426.2499695z M404.9749756,402.1249695
    c-32.625,0-57.7000122,13.2500305-72.0999756,38.0750122V317h-75.6500244v337.5999756H332.875V535.9000244
    c0-27.6499634,5.6499939-45.3750305,14.1749878-55.7749634c8.25-10.4000244,19.8500061-14.4250183,32.3999939-14.4250183
    c11.1000061,0,19.8500061,3.5500183,25.9999695,9.9249878c6.1250305,6.625,9.6749878,16.8000183,9.6749878,30.9750061v147.75
    h75.6499634V491.7000427c0-27.6500244-8.0249634-50.125-23.1499939-65.7250061
    c-14.9000244-15.6000061-36.4250183-23.875-62.6500244-23.875L404.9749756,402.1249695z" />
	</symbol>

</svg>